<svg xmlns="http://www.w3.org/2000/svg" viewBox="0 0 1200 800" role="img"><rect width="1200" height="800" rx="44" fill="#071522"/><circle cx="600" cy="400" r="330" fill="#0B333A" opacity=".20"/><g stroke="#163243" stroke-width="2" opacity=".45"><path d="M120 200H1080M120 320H1080M120 440H1080M120 560H1080"/></g><path d="M120 520 230 330 340 480 450 290 560 450 670 260 780 405 900 230 1080 360" fill="none" stroke="#6F8796" stroke-width="9" stroke-linecap="round"/><path d="M120 500 C240 410 350 430 470 365 S700 350 820 310 S1000 300 1080 285" fill="none" stroke="#55CDBF" stroke-width="18" stroke-linecap="round"/><path d="M120 470 C320 455 500 420 690 390 S940 360 1080 340" fill="none" stroke="#8BB0BA" stroke-width="12" stroke-linecap="round" opacity=".8"/></svg>