<svg xmlns="http://www.w3.org/2000/svg" width="1200" height="800" viewBox="0 0 1200 800" preserveAspectRatio="xMidYMid meet"><defs><linearGradient id="bg" x2="1" y2="1"><stop stop-color="#071522"/><stop offset="1" stop-color="#0A2030"/></linearGradient><radialGradient id="g"><stop stop-color="#47D7C3" stop-opacity=".18"/><stop offset="1" stop-color="#47D7C3" stop-opacity="0"/></radialGradient></defs><rect width="1200" height="800" rx="44" fill="url(#bg)"/><circle cx="600" cy="400" r="345" fill="url(#g)"/><circle cx="280" cy="400" r="58" fill="#0D3034" stroke="#47D7C3" stroke-width="4"/><circle cx="600" cy="400" r="54" fill="#142838" stroke="#6D8693" stroke-width="4"/><circle cx="920" cy="400" r="54" fill="#1C2933" stroke="#8A6F64" stroke-width="4"/><path d="M350 400H520M670 400H840" stroke="#3A7478" stroke-width="8" stroke-linecap="round"/><path d="M496 374L528 400 496 426M816 374L848 400 816 426" fill="none" stroke="#63CFC3" stroke-width="8" stroke-linecap="round" stroke-linejoin="round"/><path d="M260 390H300M580 390H620M900 390H940" stroke="#D8E5E8" stroke-width="7" stroke-linecap="round"/><path d="M280 372V408M600 372V408M920 372V408" stroke="#D8E5E8" stroke-width="7" stroke-linecap="round" opacity=".7"/><path d="M280 510C430 570 760 570 920 510" fill="none" stroke="#C58A76" stroke-width="6" stroke-linecap="round" opacity=".8"/></svg>